<svg width="30" height="30" viewBox="0 0 30 30" fill="none" xmlns="http://www.w3.org/2000/svg">
<g clip-path="url(#clip0)">
<path d="M24.6425 15.0005C24.0508 15.0005 23.5711 15.4802 23.5711 16.072V26.7861C23.5711 27.3778 23.0914 27.8575 22.4996 27.8575H3.21424C2.6225 27.8575 2.14281 27.3778 2.14281 26.7861V5.3578C2.14281 4.76605 2.6225 4.28636 3.21424 4.28636H16.0712C16.663 4.28636 17.1427 3.80667 17.1427 3.21493C17.1427 2.62318 16.663 2.14355 16.0712 2.14355H3.21424C1.43906 2.14355 0 3.58262 0 5.3578V26.7861C0 28.5612 1.43906 30.0003 3.21424 30.0003H22.4997C24.2749 30.0003 25.7139 28.5612 25.7139 26.7861V16.0719C25.7139 15.4802 25.2343 15.0005 24.6425 15.0005Z" fill="black"/>
<path d="M28.7991 1.20147C28.0298 0.432056 26.9863 -0.000108606 25.8983 1.69508e-05C24.8097 -0.00312196 23.7652 0.429796 22.998 1.20216L8.8853 15.3137C8.76822 15.4316 8.67989 15.575 8.62709 15.7326L6.48428 22.1611C6.29727 22.7225 6.6008 23.3292 7.16222 23.5162C7.27114 23.5524 7.38521 23.571 7.49997 23.5711C7.61498 23.5709 7.7293 23.5524 7.83853 23.5165L14.267 21.3737C14.4249 21.3209 14.5684 21.2322 14.6859 21.1144L28.7986 7.00173C30.4004 5.40013 30.4006 2.80325 28.7991 1.20147ZM27.2837 5.48777L13.3552 19.4162L9.19385 20.8058L10.5792 16.6497L24.5129 2.72139C25.279 1.95688 26.5198 1.95813 27.2843 2.72415C27.6495 3.09009 27.8552 3.58547 27.8568 4.10245C27.8581 4.62219 27.6518 5.1209 27.2837 5.48777Z" fill="black"/>
</g>
<defs>
<clipPath id="clip0">
<rect width="30" height="30" fill="white"/>
</clipPath>
</defs>
</svg>
