<svg width="30" height="30" viewBox="0 0 30 30" fill="none" xmlns="http://www.w3.org/2000/svg">
<path d="M29.1211 2.16522H25.2713C25.2853 1.73882 25.2931 1.30989 25.2931 0.878907C25.2931 0.393448 24.8994 0 24.4142 0H5.58586C5.10063 0 4.70696 0.393448 4.70696 0.878907C4.70696 1.30989 4.71474 1.73882 4.7287 2.16522H0.878907C0.393448 2.16522 0 2.55867 0 3.04413C0 6.98227 1.02928 10.6977 2.8981 13.5063C4.74541 16.2829 7.20612 17.8755 9.86435 18.0304C10.467 18.6862 11.104 19.2208 11.7675 19.6287V23.535H10.293C8.51052 23.535 7.06055 24.9852 7.06055 26.7675V28.242H6.99807C6.51261 28.242 6.11916 28.6357 6.11916 29.1209C6.11916 29.6063 6.51261 29.9998 6.99807 29.9998H23.0019C23.4874 29.9998 23.8809 29.6063 23.8809 29.1209C23.8809 28.6357 23.4874 28.242 23.0019 28.242H22.9395V26.7675C22.9395 24.9852 21.4895 23.535 19.707 23.535H18.2325V19.6287C18.896 19.2211 19.5332 18.6862 20.1359 18.0304C22.7939 17.8755 25.2546 16.2829 27.1021 13.5063C28.971 10.6977 30 6.98227 30 3.04413C30 2.55867 29.6066 2.16522 29.1211 2.16522ZM4.36157 12.5327C2.82005 10.2161 1.91437 7.18621 1.77635 3.92304H4.82689C5.14389 7.93442 6.08551 11.6423 7.55722 14.5855C7.7916 15.0543 8.03673 15.4971 8.29102 15.9142C6.82915 15.3621 5.47623 14.2081 4.36157 12.5327ZM21.1817 26.7675V28.2422H8.81836V26.7675C8.81836 25.9545 9.47983 25.2928 10.293 25.2928H19.707C20.5202 25.2928 21.1817 25.9545 21.1817 26.7675ZM16.4747 23.535H13.5253V20.3925C14.0085 20.5197 14.5008 20.5859 15 20.5859C15.4992 20.5859 15.9915 20.5197 16.4747 20.3925V23.535ZM17.019 18.3014C16.9794 18.3177 16.9414 18.3373 16.905 18.3591C16.2838 18.6681 15.6455 18.8281 15 18.8281C14.3548 18.8281 13.7167 18.6681 13.0957 18.3595C13.0589 18.3373 13.0206 18.3177 12.9806 18.3009C12.2914 17.9366 11.6247 17.3863 10.9941 16.6633C10.9609 16.6159 10.9236 16.5722 10.8822 16.5324C10.2562 15.7892 9.66729 14.875 9.12941 13.7993C7.51419 10.5691 6.58127 6.32172 6.47507 1.75781H23.5249C23.4185 6.32172 22.4856 10.5693 20.8706 13.7993C20.3327 14.875 19.7438 15.7892 19.1181 16.5324C19.0764 16.5722 19.0386 16.6161 19.0057 16.6635C18.3751 17.3868 17.7081 17.9368 17.019 18.3014ZM25.6384 12.5327C24.5238 14.2081 23.1709 15.3621 21.709 15.9142C21.9633 15.4971 22.2084 15.0543 22.4428 14.5855C23.9145 11.6423 24.8559 7.93442 25.1731 3.92304H28.2237C28.0856 7.18621 27.18 10.2161 25.6384 12.5327Z" fill="#A3A3A3"/>
</svg>
