<svg width="48" height="30" viewBox="0 0 48 30" fill="none" xmlns="http://www.w3.org/2000/svg">
<path d="M40.8632 13.2004C42.2468 12.2281 43.163 10.6108 43.163 8.78778C43.163 5.80555 40.751 3.39358 37.7688 3.39358C34.7865 3.39358 32.3746 5.80555 32.3746 8.78778C32.3746 10.6108 33.2814 12.2281 34.6744 13.2004C33.4871 13.6117 32.4026 14.2474 31.4864 15.0701C30.2244 13.995 28.7379 13.1723 27.1112 12.6862C29.0838 11.4896 30.4113 9.31131 30.4113 6.83391C30.4113 3.05703 27.3543 0 23.5774 0C19.8006 0 16.7435 3.06638 16.7435 6.83391C16.7435 9.31131 18.0617 11.4896 20.0436 12.6862C18.4356 13.1723 16.9679 13.9857 15.7152 15.0421C14.799 14.2381 13.7332 13.6117 12.5647 13.2097C13.9483 12.2375 14.8644 10.6201 14.8644 8.79713C14.8644 5.8149 12.4525 3.40293 9.47024 3.40293C6.488 3.40293 4.07604 5.8149 4.07604 8.79713C4.07604 10.6201 4.98286 12.2375 6.37582 13.2097C2.66438 14.4905 0 18.015 0 22.1564V22.7735C0 22.7921 0.0186974 22.8108 0.0373948 22.8108H11.4709C11.4054 23.325 11.368 23.8579 11.368 24.3908V25.0265C11.368 27.775 13.593 30 16.3415 30H30.832C33.5806 30 35.8055 27.775 35.8055 25.0265V24.3908C35.8055 23.8579 35.7682 23.325 35.7027 22.8108H47.211C47.2297 22.8108 47.2484 22.7921 47.2484 22.7735V22.1564C47.2297 18.0056 44.5746 14.4811 40.8632 13.2004ZM33.8704 8.77843C33.8704 6.62823 35.6186 4.88002 37.7688 4.88002C39.919 4.88002 41.6672 6.62823 41.6672 8.77843C41.6672 10.9006 39.9564 12.6301 37.8436 12.6768C37.8155 12.6768 37.7968 12.6768 37.7688 12.6768C37.7407 12.6768 37.722 12.6768 37.694 12.6768C35.5718 12.6395 33.8704 10.9099 33.8704 8.77843ZM18.2206 6.83391C18.2206 3.88906 20.6139 1.49579 23.5587 1.49579C26.5036 1.49579 28.8969 3.88906 28.8969 6.83391C28.8969 9.67591 26.6625 12.0037 23.8672 12.1627C23.7644 12.1627 23.6616 12.1627 23.5587 12.1627C23.4559 12.1627 23.3531 12.1627 23.2502 12.1627C20.455 12.0037 18.2206 9.67591 18.2206 6.83391ZM5.54378 8.77843C5.54378 6.62823 7.29199 4.88002 9.44219 4.88002C11.5924 4.88002 13.3406 6.62823 13.3406 8.77843C13.3406 10.9006 11.6298 12.6301 9.51698 12.6768C9.48894 12.6768 9.47024 12.6768 9.44219 12.6768C9.41415 12.6768 9.39545 12.6768 9.3674 12.6768C7.2546 12.6395 5.54378 10.9099 5.54378 8.77843ZM11.7326 21.3057H1.51449C1.93518 17.3232 5.30072 14.2007 9.3861 14.1726C9.4048 14.1726 9.4235 14.1726 9.44219 14.1726C9.46089 14.1726 9.47959 14.1726 9.49829 14.1726C11.4428 14.182 13.2191 14.9018 14.5933 16.0704C13.2471 17.5288 12.2468 19.3238 11.7326 21.3057ZM34.2911 25.0265C34.2911 26.943 32.7298 28.5042 30.8133 28.5042H16.3228C14.4064 28.5042 12.8451 26.943 12.8451 25.0265V24.3908C12.8451 18.5852 17.4821 13.8361 23.2502 13.6678C23.3531 13.6772 23.4653 13.6772 23.5681 13.6772C23.6709 13.6772 23.7831 13.6772 23.8859 13.6678C29.6541 13.8361 34.2911 18.5852 34.2911 24.3908V25.0265ZM35.4036 21.3057C34.8894 19.3331 33.9078 17.5662 32.5709 16.1078C33.9545 14.9112 35.7495 14.1913 37.7127 14.1726C37.7314 14.1726 37.7501 14.1726 37.7688 14.1726C37.7875 14.1726 37.8062 14.1726 37.8249 14.1726C41.9103 14.2007 45.2758 17.3232 45.6965 21.3057H35.4036Z" fill="#A3A3A3"/>
</svg>
